<?xml version="1.0" encoding="UTF-8"?>
<svg xmlns="http://www.w3.org/2000/svg" version="1.1" viewBox="0 0 50 50">
  <defs>
    <style>
      .cls-1 {
        fill: transparent;
        stroke-miterlimit: 10;
      }

      .cls-1, .cls-2 {
        stroke: #fff;
      }

      .cls-2 {
        fill: none;
        stroke-linecap: round;
        stroke-linejoin: round;
      }
    </style>
  </defs>
  <g>
    <g id="Layer_1">
      <circle class="cls-1" cx="25" cy="25" r="22.6"/>
      <line class="cls-2" x1="20.2" y1="34" x2="20.2" y2="27.6"/>
      <line class="cls-2" x1="23.4" y1="34" x2="23.4" y2="26.5"/>
      <line class="cls-2" x1="26.6" y1="34" x2="26.6" y2="23.5"/>
      <line class="cls-2" x1="29.8" y1="34" x2="29.8" y2="22.4"/>
      <line class="cls-2" x1="33" y1="34" x2="33" y2="20.2"/>
      <line class="cls-2" x1="17" y1="34" x2="17" y2="28.4"/>
      <polyline class="cls-2" points="33.9 13 37 13 37 16.1"/>
      <polyline class="cls-2" points="13 25.9 13 13 30.9 13"/>
      <line class="cls-2" x1="15.2" y1="34" x2="34.7" y2="34"/>
      <polyline class="cls-2" points="37 19.1 37 37 13 37 13 30.7 13 28.9 17.9 24 20 26.1 27.4 18.6 29.4 20.6 37 13"/>
    </g>
  </g>
</svg>