<?xml version="1.0" encoding="UTF-8" standalone="no"?>
<svg
   height="48px"
   viewBox="0 -960 960 960"
   width="48px"
   fill="#e3e3e3"
   version="1.1"
   id="svg1"
   sodipodi:docname="custom-branding.svg"
   inkscape:version="1.4 (86a8ad7, 2024-10-11)"
   xmlns:inkscape="http://www.inkscape.org/namespaces/inkscape"
   xmlns:sodipodi="http://sodipodi.sourceforge.net/DTD/sodipodi-0.dtd"
   xmlns="http://www.w3.org/2000/svg"
   xmlns:svg="http://www.w3.org/2000/svg">
  <sodipodi:namedview
     id="namedview1"
     pagecolor="#ffffff"
     bordercolor="#000000"
     borderopacity="0.25"
     inkscape:showpageshadow="2"
     inkscape:pageopacity="0.0"
     inkscape:pagecheckerboard="0"
     inkscape:deskcolor="#d1d1d1"
     inkscape:zoom="23.604167"
     inkscape:cx="42.153575"
     inkscape:cy="24"
     inkscape:window-width="2560"
     inkscape:window-height="1351"
     inkscape:window-x="-9"
     inkscape:window-y="-9"
     inkscape:window-maximized="1"
     inkscape:current-layer="svg1" />
  <defs
     id="defs1">
    <style
       id="style1">
        .cls-1 {
            fill: transparent;
            stroke-miterlimit: 10;
            stroke: #fff;
        }
        </style>
  </defs>
  <circle
     class="cls-1"
     cx="480"
     cy="-480"
     r="450"
     style="display:inline;stroke-width:20"
     id="circle1"
     sodipodi:insensitive="true" />
  <path
     d="m 480.79755,-172.53311 q -63.06828,0 -119.0699,-24.37314 -56.01019,-24.38171 -97.8013,-66.17281 -41.7911,-41.79111 -66.17281,-98.12719 -24.37314,-56.33608 -24.37314,-120.06472 0,-64.98075 24.80194,-121.31683 24.81052,-56.33609 67.78512,-98.03285 42.98317,-41.68819 100.93155,-65.53819 57.95696,-23.85 123.59806,-23.85 59.83511,0 114.13009,19.75923 54.28641,19.75922 95.55437,55.44417 41.25939,35.69353 65.96699,84.73997 24.70761,49.04644 24.70761,107.16634 0,76.78997 -43.14612,125.11602 -43.14611,48.31748 -124.41278,48.31748 h -61.02719 q -25.33365,0 -43.73786,18.27556 -18.40421,18.27557 -18.40421,43.41198 0,27.76925 12.76117,41.42233 12.76974,13.66165 12.76974,31.8 0,20.05081 -11.41473,31.03673 -11.41472,10.98592 -33.4466,10.98592 z m 1.32071,-308.73786 z m -193.88737,11.74061 q 11.87783,0 21.11423,-9.23641 9.23641,-9.2364 9.23641,-21.10566 0,-11.87783 -9.23641,-21.11424 -9.2364,-9.23641 -21.11423,-9.23641 -11.86926,0 -21.10567,9.23641 -9.23641,9.23641 -9.23641,21.11424 0,11.86926 9.23641,21.10566 9.23641,9.23641 21.10567,9.23641 z m 105.4254,-141.17039 q 11.86926,0 21.10566,-9.23641 9.23641,-9.2364 9.23641,-21.11423 0,-11.86926 -9.23641,-21.10567 -9.2364,-9.23641 -21.10566,-9.23641 -11.87783,0 -21.11424,9.23641 -9.23641,9.23641 -9.23641,21.10567 0,11.87783 9.23641,21.11423 9.23641,9.23641 21.11424,9.23641 z m 176.92395,0 q 11.87783,0 21.11424,-9.23641 9.23641,-9.2364 9.23641,-21.11423 0,-11.86926 -9.23641,-21.10567 -9.23641,-9.23641 -21.11424,-9.23641 -11.86926,0 -21.10567,9.23641 -9.2364,9.23641 -9.2364,21.10567 0,11.87783 9.2364,21.11423 9.23641,9.23641 21.10567,9.23641 z m 107.072,141.17039 q 11.87784,0 21.11424,-9.23641 9.22784,-9.2364 9.22784,-21.10566 0,-11.87783 -9.22784,-21.11424 -9.2364,-9.23641 -21.11424,-9.23641 -11.87783,0 -21.11423,9.23641 -9.22784,9.23641 -9.22784,21.11424 0,11.86926 9.22784,21.10566 9.2364,9.23641 21.11423,9.23641 z m -196.85469,270.60874 q 9.43366,0 13.95324,-3.85922 4.51958,-3.85923 4.51958,-11.77492 0,-12.00648 -12.76117,-22.95809 -12.76974,-10.95162 -12.76974,-43.47201 0,-38.78948 25.40227,-66.8246 25.39369,-28.04369 62.86246,-28.04369 h 61.29304 q 68.4712,0 104.82508,-40.47038 36.34531,-40.47039 36.34531,-106.5746 0,-108.58139 -83.1191,-174.65129 -83.12767,-66.06991 -190.85145,-66.06991 -122.56894,0 -206.64855,81.83269 -84.07961,81.84126 -84.07961,200.51667 0,116.96019 82.3644,199.65906 82.3644,82.69029 198.66424,82.69029 z"
     id="path1"
     style="display:inline;stroke-width:12" />
</svg>
