<?xml version="1.0" encoding="UTF-8"?>
<svg xmlns="http://www.w3.org/2000/svg" version="1.1" viewBox="0 0 50 50">
  <defs>
    <style>
      .cls-1 {
        fill: transparent;
        stroke-miterlimit: 10;
      }

      .cls-1, .cls-2 {
        stroke: #fff;
      }

      .cls-2 {
        fill: none;
        stroke-linecap: round;
        stroke-linejoin: round;
      }
    </style>
  </defs>
  <!-- Generator: Adobe Illustrator 28.7.1, SVG Export Plug-In . SVG Version: 1.2.0 Build 142)  -->
  <g>
    <g id="Layer_1">
      <circle class="cls-1" cx="25" cy="25" r="22.6"/>
      <polyline class="cls-2" points="15 28.4 15 23.6 35.3 23.6 35.3 28.4"/>
      <line class="cls-2" x1="25.1" y1="23.6" x2="25.1" y2="28.4"/>
      <path class="cls-2" d="M22.1,15.1c0,1.8,1.3,3.2,3,3.2s3-1.4,3-3.2-1.3-3.2-3-3.2-3,1.4-3,3.2h0Z"/>
      <path class="cls-2" d="M12,31.6c0,1.8,1.3,3.2,3,3.2s3-1.4,3-3.2-1.3-3.2-3-3.2-3,1.4-3,3.2h0Z"/>
      <path class="cls-2" d="M22.1,31.6c0,1.8,1.3,3.2,3,3.2s3-1.4,3-3.2-1.3-3.2-3-3.2-3,1.4-3,3.2h0Z"/>
      <path class="cls-2" d="M32.3,31.6c0,1.8,1.3,3.2,3,3.2s3-1.4,3-3.2-1.3-3.2-3-3.2-3,1.4-3,3.2h0Z"/>
      <line class="cls-2" x1="25.1" y1="18.6" x2="25.1" y2="23.3"/>
    </g>
  </g>
</svg>