<?xml version="1.0" encoding="UTF-8" standalone="no"?>
<svg
   version="1.1"
   id="Layer_1"
   x="0px"
   y="0px"
   viewBox="0 0 50 50"
   xml:space="preserve"
   sodipodi:docname="egift.svg"
   inkscape:version="1.4 (86a8ad7, 2024-10-11)"
   width="50"
   height="50"
   xmlns:inkscape="http://www.inkscape.org/namespaces/inkscape"
   xmlns:sodipodi="http://sodipodi.sourceforge.net/DTD/sodipodi-0.dtd"
   xmlns="http://www.w3.org/2000/svg"
   xmlns:svg="http://www.w3.org/2000/svg"><defs
   id="defs2" /><sodipodi:namedview
   id="namedview2"
   pagecolor="#ffffff"
   bordercolor="transparent"
   borderopacity="0.25"
   inkscape:showpageshadow="2"
   inkscape:pageopacity="0.0"
   inkscape:pagecheckerboard="0"
   inkscape:deskcolor="#d1d1d1"
   inkscape:zoom="15.106667"
   inkscape:cx="23.499559"
   inkscape:cy="24.724183"
   inkscape:window-width="2560"
   inkscape:window-height="1351"
   inkscape:window-x="-9"
   inkscape:window-y="-9"
   inkscape:window-maximized="1"
   inkscape:current-layer="g2" />
<style
   type="text/css"
   id="style1">
	.st0{fill:transparent; stroke: #fff; stroke-miterlimit: 10;}
	.st1{fill:#6D6E71;}
    .cls-1 {
        fill: transparent;
        stroke-miterlimit: 10;
        stroke: #fff;
    }
</style>
<g
   id="g2"
   transform="matrix(1.7655891,0,0,1.7655891,-212.83372,-54.56715)">
	
	
	<!-- <path class="st0" d="M69.3,64.2c-2.9-2.9-6.4-4.3-10.5-4.3c-3.9,0-7.3,1.4-10.2,4c-1.5,1.4-3.2,3.7-4.1,6.8
		c-1.4,5-0.5,10.6,3.7,14.6c3,2.8,6.4,4.3,10.5,4.3c3.7,0,7-1.2,9.7-3.6l0,0c0.6-0.6,0.9-1.4,0.9-2.3c0-0.9-0.3-1.7-0.9-2.3
		c-0.6-0.6-1.4-0.9-2.3-0.9h0c-0.8,0-1.5,0.3-2.1,0.8c-0.8,0.6-1.6,1.1-2.5,1.4c-0.9,0.3-1.9,0.5-2.9,0.5c-0.9,0-1.8-0.1-2.7-0.4
		c-0.9-0.3-1.7-0.7-2.4-1.2c-0.7-0.5-1.3-1.2-1.9-1.9c-0.4-0.5-0.7-1.1-1-1.8h19.6c0.9,0,1.6-0.3,2.3-0.9c0.6-0.6,0.9-1.4,0.9-2.3
		c0-2-0.4-4-1.1-5.7C71.9,67.2,70.8,65.6,69.3,64.2z M50.9,71.5c0.2-0.6,0.6-1.2,1-1.8c0.5-0.7,1.2-1.4,1.9-1.9
		c0.7-0.5,1.5-0.9,2.4-1.2c1.7-0.6,3.6-0.6,5.3,0c0.9,0.3,1.7,0.7,2.4,1.2c0.7,0.5,1.3,1.2,1.9,1.9c0.4,0.5,0.7,1.1,1,1.8H50.9z"/> -->
	<!-- <path class="st1" d="M90.5,59.8c-6.4,0-12.6,4.5-14.4,10.4c-1.7,5.5,0.4,10.8,0.5,11.1c2.5,5.5,7.9,9.1,13.9,9.1
		c1.3,0,2.6-0.2,3.8-0.5c0.1,0,1.6-0.5,2.2-1.7c0.3-0.7,0.3-1.5,0-2.3c-1-2.6-3.5-1.9-3.8-1.8c-0.7,0.2-1.5,0.3-2.2,0.3
		c-5.1,0-9.2-4.1-9.2-9.2s4.1-9.2,9.2-9.2c4.9,0,9,3.9,9.2,8.8l0,0.8c0,0.1,0,0.2,0,0.4v10.8l0,0.6l0,0v2.7l0,0.2
		C99.5,95,95.4,99,90.5,99c-2.1,0-4.4-0.8-5.6-2c-0.9-0.8-2.9-1.9-4.6-0.4c-1.9,1.7-0.6,3.8-0.1,4.5c1.6,2.2,6.2,4,10.3,4
		c8.2,0,15-6.6,15.2-14.8l0-16.2h0C105.2,66.2,98.4,59.8,90.5,59.8z"/> -->
	<!-- <path class="st1" d="M112.5,48.5c-1.1,0-2,0.4-2.8,1.2c-0.8,0.8-1.2,1.7-1.2,2.8c0,1.1,0.4,2,1.2,2.8c0.8,0.8,1.7,1.2,2.8,1.2
		c1.1,0,2-0.4,2.8-1.2c0.8-0.8,1.2-1.7,1.2-2.8c0-1.1-0.4-2-1.2-2.8C114.5,48.9,113.6,48.5,112.5,48.5z"/>
	<path class="st1" d="M112.5,60.1c-0.9,0-1.7,0.3-2.3,0.9c-0.6,0.6-0.9,1.4-0.9,2.3v23.4c0,0.9,0.3,1.7,0.9,2.3
		c0.6,0.6,1.4,0.9,2.3,0.9c0.9,0,1.7-0.3,2.3-0.9c0.6-0.6,0.9-1.4,0.9-2.3V63.3c0-0.9-0.3-1.7-0.9-2.3
		C114.2,60.4,113.4,60.1,112.5,60.1z"/> -->
	<!-- <path class="st1" d="M157.8,64.7c0.6-0.5,0.9-1.2,0.9-2c0-0.9-0.3-1.6-0.9-2.1c-0.6-0.5-1.3-0.8-2.2-0.8H155c-0.2,0-0.4,0-0.5,0h-3
		V54c0-0.9-0.3-1.7-0.9-2.3c-0.6-0.6-1.4-0.9-2.3-0.9c-0.9,0-1.7,0.3-2.3,0.9c-0.6,0.6-0.9,1.4-0.9,2.3v5.7h-3c-0.2,0-0.4,0-0.5,0
		h-0.6c-0.9,0-1.6,0.3-2.2,0.8c-0.2,0.2-0.3,0.4-0.5,0.6c-0.1-0.2-0.3-0.4-0.5-0.6c-0.5-0.5-1.2-0.7-2-0.8c-0.2,0-0.4,0-0.6,0h-3.7
		v-0.3c0-1.6,0-4.2,1.3-6c0.7-1,2-1.4,3.4-1.4c0.9,0,1.7-0.3,2.3-0.8c0.6-0.6,1-1.3,1-2.2c0-0.9-0.3-1.6-1-2.2
		c-0.6-0.5-1.4-0.8-2.3-0.8c-2.2,0-4.1,0.5-5.8,1.5c-1.7,1-3.1,2.4-4,4.2c-0.9,1.7-1.4,5.9-1.4,8.2h-3.2c-0.2,0-0.4,0-0.5,0h-0.4
		c-0.9,0-1.6,0.3-2.2,0.8c-0.6,0.5-0.9,1.3-0.9,2.1c0,0.8,0.3,1.5,0.9,2c0.6,0.5,1.3,0.8,2.2,0.8h4.1V87c0,1,0.3,1.7,0.9,2.3
		c0.6,0.6,1.4,0.9,2.2,0.9c1,0,1.8-0.3,2.4-0.9c0.6-0.6,0.9-1.4,0.9-2.3V65.5h4.1c0.9,0,1.6-0.3,2.2-0.8c0.2-0.2,0.3-0.4,0.5-0.6
		c0.1,0.2,0.3,0.4,0.5,0.6c0.6,0.5,1.3,0.8,2.2,0.8h4.1v0h0V87c0,0.9,0.3,1.7,0.9,2.3c0.6,0.6,1.4,0.9,2.3,0.9c1,0,1.7-0.3,2.3-0.9
		c0.6-0.6,0.9-1.4,0.9-2.3V65.5h4.1C156.5,65.5,157.2,65.2,157.8,64.7z"/> -->
<circle class="cls-1" cx="134.78143" cy="45.099918" r="13.379845" id="circle1" style="stroke-width:0.5" />
<path
   class="st0"
   d="m 141.3461,40.265813 -13.47276,0.03632 c -0.74801,-0.0049 -1.33527,0.641751 -1.34,1.41913 l 0.0502,7.053402 c -0.005,0.777378 0.6038,1.411764 1.35181,1.416681 l 13.47277,-0.03632 c 0.748,0.0049 1.33526,-0.641752 1.33999,-1.41913 l -0.0501,-7.053403 c 0.005,-0.777377 -0.6038,-1.411762 -1.35181,-1.41668 z m -7.44138,5.046551 c 0.008,-0.287954 0.22317,-0.529226 0.50025,-0.521364 l 3.00577,-0.0044 c 0.27708,0.0078 0.49079,0.236849 0.50167,0.51989 -0.008,0.287953 -0.22317,0.529224 -0.50025,0.521363 l -3.00577,0.0044 c -0.27707,-0.0078 -0.4908,-0.236853 -0.50167,-0.519889 z m -1.66672,2.404856 -1.65821,-0.906125 -1.66152,0.912505 0.30735,-1.940496 -1.3608,-1.373436 1.85443,-0.289917 0.82084,-1.770964 0.84588,1.755737 1.85774,0.281079 -1.33101,1.375887 z m 9.06033,-0.555739 c -0.008,0.287955 -0.22317,0.529227 -0.50026,0.521362 l -6.38081,0.02554 c -0.27708,-0.0078 -0.49079,-0.236852 -0.50167,-0.519893 0.008,-0.287954 0.22318,-0.529225 0.50026,-0.521361 l 6.38553,-0.0063 c 0.27235,-0.01131 0.48607,0.217686 0.49695,0.500729 z m 0.73005,-5.484395 c -0.008,0.369524 -0.287,0.66878 -0.63784,0.680572 -0.35557,-0.0074 -0.64352,-0.298274 -0.63643,-0.6678 0.008,-0.369523 0.28701,-0.668779 0.63785,-0.680571 0.33713,0.01228 0.62508,0.303188 0.63642,0.667799 z"
   id="path3"
   style="stroke-width:0.5" /></g>
</svg>
