<?xml version="1.0" encoding="UTF-8"?>
<svg xmlns="http://www.w3.org/2000/svg" version="1.1" viewBox="0 0 50 50">
  <defs>
    <style>
      .cls-1 {
        fill: transparent;
        stroke-miterlimit: 10;
      }

      .cls-1, .cls-2 {
        stroke: #fff;
      }

      .cls-2 {
        fill: none;
        stroke-linecap: round;
        stroke-linejoin: round;
      }
    </style>
  </defs>
  <g>
    <g id="Layer_1">
      <circle class="cls-1" cx="25" cy="25" r="22.6"/>
      <g>
        <polyline class="cls-2" points="13.7 14.7 13.7 16.7 13.7 32.3"/>
        <path class="cls-2" d="M36.3,14.7h-7.2c-1.9,0-3.5,1.2-4.1,2.9-.6-1.8-2.2-2.9-4.1-2.9h-7.2"/>
        <path class="cls-2" d="M36.3,32.3h-7.2c-1.9,0-3.5,1.2-4.1,2.9-.6-1.8-2.2-2.9-4.1-2.9h-7.2"/>
        <polyline class="cls-2" points="36.3 32.3 36.3 16.7 36.3 14.7"/>
        <path class="cls-2" d="M36.3,16.7h2v17.6h-8.3c-.9,0-1.8.5-2.2,1.2l-.3.5c-.5.8-1.3,1.2-2.3,1.2h-.2c-.9,0-1.8-.5-2.3-1.2l-.3-.5c-.5-.8-1.3-1.2-2.2-1.2h-8.3v-17.6h2"/>
        <line class="cls-2" x1="25" y1="35.3" x2="25" y2="17.7"/>
      </g>
    </g>
  </g>
</svg>