<?xml version="1.0" encoding="UTF-8"?>
<svg xmlns="http://www.w3.org/2000/svg" version="1.1" viewBox="0 0 50 50">
  <defs>
    <style>
      .cls-1 {
        fill: transparent;
        stroke-miterlimit: 10;
      }

      .cls-1, .cls-2 {
        stroke: white;
      }

      .cls-2 {
        fill: none;
        stroke-linecap: round;
        stroke-linejoin: round;
      }
    </style>
  </defs>
  <g>
    <g id="Layer_1">
      <circle class="cls-1" cx="25" cy="25" r="22.6"/>
      <line class="cls-2" x1="31.8" y1="24.1" x2="33.8" y2="24.1"/>
      <line class="cls-2" x1="15.3" y1="24.1" x2="18.7" y2="24.1"/>
      <line class="cls-2" x1="15.3" y1="26.9" x2="18.7" y2="26.9"/>
      <line class="cls-2" x1="15.3" y1="29.8" x2="18.7" y2="29.8"/>
      <line class="cls-2" x1="15.3" y1="21.2" x2="18.7" y2="21.2"/>
      <path class="cls-2" d="M27.7,37v-14.3c0-.7.5-1.2,1.2-1.2h8c.7,0,1.2.5,1.2,1.2v14.3c0,.7-.5,1.2-1.2,1.2h-8c-.7,0-1.2-.5-1.2-1.2"/>
      <path class="cls-2" d="M35.3,20.1v-3.8c0-1.2-1-2.2-2.2-2.2H14.2c-1.2,0-2.2,1-2.2,2.2v14.6c0,1.2,1,2.2,2.2,2.2h11.1"/>
      <line class="cls-2" x1="12.2" y1="18.3" x2="35.2" y2="18.3"/>
      <line class="cls-2" x1="15.7" y1="12.5" x2="15.7" y2="15.4"/>
      <line class="cls-2" x1="25.9" y1="12.5" x2="25.9" y2="15.4"/>
      <line class="cls-2" x1="20.8" y1="12.5" x2="20.8" y2="15.4"/>
      <line class="cls-2" x1="31.1" y1="12.5" x2="31.1" y2="15.4"/>
    </g>
  </g>
</svg>