<?xml version="1.0" encoding="UTF-8"?>
<svg xmlns="http://www.w3.org/2000/svg" version="1.1" viewBox="0 0 50 50">
  <defs>
    <style>
      .cls-1 {
        fill: transparent;
        stroke-miterlimit: 10;
      }

      .cls-1, .cls-2 {
        stroke: white;
      }

      .cls-2 {
        fill: none;
        stroke-linecap: round;
        stroke-linejoin: round;
      }
    </style>
  </defs>
  <g>
    <g id="Layer_1">
      <circle class="cls-1" cx="25" cy="25" r="22.6"/>
      <path class="cls-2" d="M25,36l-1.6-1.2c-.8-.6-1.5-1.3-2-2.1h0c-.7-1.1-1.1-2.4-1.1-3.8v-1.8c.2,0,.4,0,.6,0,.9,0,1.7-.2,2.5-.5.6-.2,1.1-.6,1.6-1,.5.4,1,.7,1.6,1,.8.3,1.6.5,2.5.5s.4,0,.6,0h0v1.8c0,1.3-.4,2.6-1.1,3.8h0c-.5.8-1.2,1.6-2,2.1l-1.6,1.2h0Z"/>
      <path class="cls-2" d="M14.7,34.3v-11.6h20.7v11.6c0,2.6-2.1,4.6-4.6,4.6h-11.4c-2.6,0-4.6-2.1-4.6-4.6h0Z"/>
      <path class="cls-2" d="M33.4,22.7v-3.4c0-4.5-3.7-8.2-8.2-8.2h0c-4.5,0-8.2,3.7-8.2,8.2v3.4"/>
      <path class="cls-2" d="M30.5,22.7v-3.4c0-2.9-2.4-5.3-5.3-5.3h0c-2.9,0-5.3,2.4-5.3,5.3v3.4"/>
      <polyline class="cls-2" points="23.2 30.6 24.5 31.9 27.1 29.4"/>
    </g>
  </g>
</svg>