<?xml version="1.0" encoding="UTF-8"?>
<svg id="Layer_1" xmlns="http://www.w3.org/2000/svg" viewBox="0 0 50 50">
  <defs>
    <style>
      .cls-1 {
        fill: transparent;
        stroke-miterlimit: 10;
      }

      .cls-1, .cls-2 {
        stroke: #fff;
      }

      .cls-2 {
        fill: none;
        stroke-linecap: round;
        stroke-linejoin: round;
      }
    </style>
  </defs>
  <g id="Layer_1-2" data-name="Layer_1">
    <circle class="cls-1" cx="25" cy="25" r="22.6"/>
    <path class="cls-2" d="M12.2,17.4c-1.3,2.2-2.1,4.8-2.1,7.6,0,8.3,6.7,15,15,15s15-6.7,15-15-6.7-15-15-15c-4.69,0-8.42,2.22-10.6,4.4M35.5,30.3c.8-1.6,1.3-3.4,1.3-5.3,0-6.4-5.2-11.6-11.6-11.6s-11.6,5.2-11.6,11.6,5.2,11.6,11.6,11.6c3.81,0,6.1-1.3,8.2-3.4"/>
    <path class="cls-2" d="M25.1,15.2v2.1M35,25h-2.1M25.1,34.8v-2.1M15.3,25h2.1M22,22.4l3.1,3.1,6.2-6.2"/>
  </g>
</svg>