<?xml version="1.0" encoding="utf-8"?>
<!-- Generator: Adobe Illustrator 26.5.0, SVG Export Plug-In . SVG Version: 6.00 Build 0)  -->
<svg version="1.1" id="Layer_1" xmlns="http://www.w3.org/2000/svg" xmlns:xlink="http://www.w3.org/1999/xlink" x="0px" y="0px"
	 viewBox="0 0 140 95" style="enable-background:new 0 0 140 95;" xml:space="preserve">
<style type="text/css">
	.st0{fill:#FFFFFF;}
</style>
<g>
	<g id="Meevo_2_1_">
		<g>
			<g>
				<g>
					<path class="st0" d="M135.1,34.5c-2.8-2.8-6.2-4.2-10.1-4.2c-3.6,0-6.8,1.2-9.4,3.5c0.1-0.3,0.2-0.6,0.2-0.9
						c0-0.4-0.1-0.7-0.2-1c-0.1-0.3-0.3-0.6-0.6-0.9s-0.5-0.4-0.8-0.6c-0.3-0.1-0.7-0.2-1.1-0.2c-1.1,0-1.8,0.5-2.3,1.4l-8.3,18.2
						L94,31.6c-0.2-0.4-0.6-0.8-1-1c-0.4-0.2-0.9-0.4-1.3-0.4c-0.4,0-0.7,0.1-1.1,0.2c-0.3,0.1-0.6,0.3-0.8,0.6
						c-0.2,0.2-0.4,0.5-0.6,0.9c-0.1,0.3-0.2,0.7-0.2,1c0,0.2,0,0.4,0.1,0.5c-2.6-2.1-5.6-3.2-9-3.2c-3.9,0-7.3,1.4-10.1,4.2
						c-1.2,1.2-2.1,2.5-2.8,3.9c-0.7-1.4-1.6-2.7-2.8-3.9c-2.8-2.8-6.2-4.2-10.1-4.2c-3.9,0-7.3,1.4-10.1,4.2c-1,1-1.8,2-2.4,3.1
						V24.9c0-0.3-0.1-0.6-0.2-0.9c-0.1-0.3-0.3-0.5-0.6-0.8c-0.2-0.2-0.5-0.4-0.9-0.5c-0.3-0.1-0.7-0.2-1.1-0.2
						c-1,0-1.7,0.6-2.4,1.3L21.2,40.5L5.9,23.8c-0.7-0.7-1.4-1.3-2.4-1.3c-0.4,0-0.8,0.1-1.1,0.2c-0.3,0.1-0.6,0.3-0.9,0.5
						C1.3,23.4,1.1,23.7,1,24c-0.1,0.3-0.2,0.6-0.2,0.9v31.6c0,0.7,0.3,1.2,0.8,1.7c0.5,0.5,1.2,0.7,1.9,0.7s1.4-0.2,1.9-0.7
						s0.8-1,0.8-1.7V32.1l12.5,14.1c0.9,0.9,1.4,1.2,2.5,1.2c1,0,1.6-0.2,2.4-0.9l12.7-14.4v24.4c0,0.7,0.3,1.2,0.8,1.7
						c0.5,0.5,1.2,0.7,1.9,0.7c0.8,0,1.4-0.2,1.9-0.7c0.5-0.5,0.8-1,0.8-1.7v-4.9c0.6,1.1,1.4,2.2,2.4,3.1c2.8,2.8,6.2,4.2,10.1,4.2
						c3.6,0,6.7-1.2,9.4-3.5c0.5-0.5,0.8-1.2,0.8-1.9c0-0.8-0.2-1.4-0.8-1.9c-0.5-0.5-1.1-0.8-1.9-0.8c-0.7,0-1.2,0.2-1.8,0.7
						c-0.8,0.7-1.7,1.2-2.6,1.5c-0.9,0.4-2,0.5-3.1,0.5c-1,0-1.9-0.2-2.8-0.5c-0.9-0.3-1.8-0.7-2.5-1.3c-0.8-0.5-1.4-1.2-2-2
						c-0.6-0.8-1-1.6-1.3-2.6h20.2c0.1,0,0.1,0,0.2,0c0.5,2.8,1.8,5.3,4,7.5c2.8,2.8,6.2,4.2,10.1,4.2c3.6,0,6.7-1.2,9.4-3.5
						c0.5-0.5,0.8-1.2,0.8-1.9c0-0.8-0.2-1.4-0.8-1.9c-0.5-0.5-1.1-0.8-1.9-0.8c-0.7,0-1.2,0.2-1.8,0.7c-0.8,0.7-1.7,1.2-2.6,1.5
						c-0.9,0.4-2,0.5-3.1,0.5c-1,0-1.9-0.2-2.8-0.5c-0.9-0.3-1.8-0.7-2.5-1.3c-0.8-0.5-1.4-1.2-2-2c-0.6-0.8-1-1.6-1.3-2.6h20.2
						c0.8,0,1.4-0.2,1.9-0.8c0.4-0.4,0.6-0.8,0.7-1.4l5.7,12.3c0.4,0.9,1.2,1.4,2.4,1.4c1.1,0,1.9-0.5,2.4-1.4l5.7-12.4
						c0,3.9,1.5,6.8,4.3,9.6c2.8,2.8,6.2,4.2,10.1,4.2c3.9,0,7.3-1.4,10.1-4.2c2.8-2.8,4.2-6.1,4.2-10.1c0-2-0.4-3.8-1.1-5.5
						C137.5,37.4,136.5,35.9,135.1,34.5z M45.6,42c0.3-0.9,0.7-1.8,1.2-2.6c0.6-0.8,1.2-1.4,2-2c0.8-0.6,1.6-1,2.5-1.3
						c0.9-0.3,1.9-0.5,2.8-0.5c1,0,1.9,0.2,2.8,0.5c0.9,0.3,1.8,0.7,2.5,1.3c0.8,0.5,1.4,1.2,2,2c0.6,0.8,1,1.6,1.3,2.6H45.6z
						 M71.5,42c0.3-0.9,0.7-1.8,1.2-2.6c0.6-0.8,1.2-1.4,2-2c0.8-0.6,1.6-1,2.5-1.3c0.9-0.3,1.9-0.5,2.8-0.5s1.9,0.2,2.8,0.5
						c0.9,0.3,1.8,0.7,2.5,1.3c0.8,0.5,1.4,1.2,2,2c0.6,0.8,1,1.6,1.3,2.6H71.5z M133.2,48.1c-0.5,1.1-1.1,2-1.9,2.8
						c-0.8,0.8-1.8,1.5-2.8,1.9c-1.1,0.5-2.2,0.7-3.5,0.7c-1.3,0-2.4-0.2-3.5-0.7c-1.1-0.5-2-1.1-2.8-1.9c-0.8-0.8-1.4-1.8-1.9-2.8
						c-0.5-1.1-0.7-2.2-0.7-3.5c0-1.2,0.2-2.4,0.7-3.5c0.5-1.1,1.1-2,1.9-2.8c0.8-0.8,1.8-1.5,2.8-1.9c1.1-0.5,2.3-0.7,3.5-0.7
						c1.2,0,2.4,0.2,3.5,0.7c1.1,0.5,2.1,1.1,2.8,1.9c0.8,0.8,1.5,1.8,1.9,2.8s0.7,2.2,0.7,3.5C133.9,45.8,133.7,47,133.2,48.1z"/>
				</g>
			</g>
		</g>
	</g>
	<g>
		<path class="st0" d="M18.1,69.2c0-0.9-0.7-1.6-1.6-1.7h-1.9c0,0-0.2,0-0.4,0.1c-0.1,0.2-0.1,0.4-0.1,0.4v4c0,0.1,0,0.2,0.1,0.3
			c0.1,0.1,0.2,0.1,0.3,0.1s0.2,0,0.3-0.1c0.1-0.1,0.1-0.2,0.1-0.3v-3.8h1.6c0.5,0,0.9,0.5,0.9,1l0,0l0,0c0,0.5-0.4,1-0.9,1h-0.1
			h-0.6c-0.1,0-0.2,0-0.2,0.1c-0.1,0.1-0.1,0.2-0.1,0.3c0,0.1,0,0.2,0.1,0.3c0.1,0.1,0.2,0.1,0.2,0.1h0.7h0.1l0,0
			C17.4,70.9,18.1,70.1,18.1,69.2L18.1,69.2L18.1,69.2z"/>
		<path class="st0" d="M25.6,71c0,0.9,0.6,1.5,1.5,1.5l0,0l0,0c0.5,0,0.9-0.2,1.1-0.5c0.2,0.3,0.6,0.5,1.1,0.5l0,0l0,0
			c0.9,0,1.5-0.6,1.5-1.5v-0.1v-3c0-0.1,0-0.2-0.1-0.3c-0.1-0.1-0.2-0.1-0.3-0.1s-0.2,0-0.3,0.1c-0.1,0.1-0.1,0.2-0.1,0.3v2.9v0.1
			c0,0.5-0.3,0.8-0.8,0.8s-0.8-0.3-0.8-0.8v-0.1v-2.9c0-0.1,0-0.2-0.1-0.3c-0.1-0.1-0.2-0.1-0.3-0.1l0,0l0,0c-0.1,0-0.2,0-0.3,0.1
			c-0.1,0.1-0.1,0.2-0.1,0.3v2.9v0.1c0,0.5-0.3,0.8-0.8,0.8c-0.5,0-0.8-0.3-0.8-0.8v-0.1v-2.9c0-0.1,0-0.2-0.1-0.3
			c-0.1-0.1-0.2-0.1-0.3-0.1s-0.2,0-0.3,0.1c-0.1,0.1-0.1,0.2-0.1,0.3v3L25.6,71z"/>
		<path class="st0" d="M35.3,70.3c0.1,0,0.2,0,0.3-0.1c0.1-0.1,0.1-0.2,0.1-0.3s0-0.2-0.1-0.3c-0.1-0.1-0.2-0.1-0.3-0.1h-1.7v-1.4
			H36c0.1,0,0.2,0,0.3-0.1c0.1-0.1,0.1-0.2,0.1-0.3c0-0.1,0-0.2-0.1-0.3c-0.1-0.1-0.2-0.1-0.3-0.1h-2.7c0,0-0.2,0-0.4,0.1
			c-0.1,0.2-0.1,0.3-0.1,0.3v4c0,0,0,0.2,0.1,0.3c0.1,0.2,0.4,0.1,0.4,0.1H36c0.1,0,0.2,0,0.3-0.1c0.1-0.1,0.1-0.2,0.1-0.3
			s0-0.2-0.1-0.3c-0.1-0.1-0.2-0.1-0.3-0.1h-2.5v-1.4h1.7V70.3z"/>
		<path class="st0" d="M46.1,70.4c0.1,0,0.2,0,0.3-0.1c0.1-0.1,0.1-0.2,0.1-0.3c0-0.1,0-0.2-0.1-0.3c-0.1-0.1-0.2-0.1-0.3-0.1h-1.7
			v-1.4h2.5c0.1,0,0.2,0,0.3-0.1c0.1-0.1,0.1-0.2,0.1-0.3c0-0.1,0-0.2-0.1-0.3c-0.1-0.1-0.2-0.1-0.3-0.1h-2.7c0,0-0.2,0-0.4,0.1
			c-0.1,0.2-0.1,0.3-0.1,0.3v4c0,0,0,0.2,0.1,0.3c0.1,0.2,0.4,0.1,0.4,0.1h2.7c0.1,0,0.2,0,0.3-0.1c0.1-0.1,0.1-0.2,0.1-0.3
			c0-0.1,0-0.2-0.1-0.3c-0.1-0.1-0.2-0.1-0.3-0.1h-2.5v-1.4h1.7V70.4z"/>
		<path class="st0" d="M52.2,68.7c-0.2-0.4-0.5-0.7-0.9-0.9c-0.4-0.2-0.8-0.3-1.3-0.3H49c-0.1,0-0.2,0-0.3,0.1
			c-0.1,0.1-0.1,0.2-0.1,0.3V72c0,0.1,0,0.2,0.1,0.3c0.1,0.1,0.2,0.1,0.3,0.1h1.1c0.5,0,0.9-0.1,1.3-0.3c0.4-0.2,0.6-0.5,0.9-0.9
			s0.3-0.8,0.3-1.3C52.5,69.5,52.4,69.1,52.2,68.7z M50.1,71.7h-0.7v-3.5h0.7c0.3,0,0.6,0.1,0.9,0.2c0.2,0.1,0.5,0.4,0.6,0.6
			c0.1,0.3,0.2,0.6,0.2,0.9c0,0.3-0.1,0.6-0.2,0.9c-0.1,0.3-0.4,0.5-0.6,0.6C50.7,71.6,50.4,71.7,50.1,71.7z"/>
		<path class="st0" d="M41.9,69.3L41.9,69.3L41.9,69.3c0-0.9-0.7-1.6-1.6-1.7h-1.9c0,0-0.2,0-0.4,0.1C38,67.9,38,68.1,38,68.1v4
			c0,0.1,0,0.2,0.1,0.3c0.1,0.1,0.2,0.1,0.3,0.1c0.1,0,0.2,0,0.3-0.1c0.1-0.1,0.1-0.2,0.1-0.3v-3.8h1.6c0.5,0,0.9,0.5,0.9,1l0,0l0,0
			c0,0.5-0.4,1-0.9,1h-0.1h-0.6c-0.1,0-0.2,0-0.2,0.1c-0.1,0.1-0.1,0.2-0.1,0.3c0,0.1,0,0.1,0,0.1l0,0l0,0c0,0.1,0.1,0.1,0.1,0.1
			l2,1.5c0.1,0.1,0.2,0.1,0.2,0.1c0.1,0,0.2,0,0.2-0.1c0.1-0.1,0.1-0.2,0.1-0.2c0-0.1,0-0.2-0.1-0.2L40.6,71
			C41.3,70.8,41.9,70.1,41.9,69.3z"/>
		<path class="st0" d="M21.8,67.5c-1.4,0-2.5,1.1-2.5,2.5c0,1.4,1.1,2.5,2.5,2.5c1.4,0,2.5-1.1,2.5-2.5
			C24.2,68.6,23.1,67.5,21.8,67.5z M21.8,71.7c-1,0-1.7-0.8-1.7-1.7c0-1,0.8-1.7,1.7-1.7s1.7,0.8,1.7,1.7S22.7,71.7,21.8,71.7z"/>
		<path class="st0" d="M59.8,69.8c0.2-0.2,0.4-0.6,0.4-0.9c0,0,0.1-1.4-1.4-1.4h-0.1h-1.1c0,0,0,0,0,0l0,0h-0.3
			c-0.1,0-0.2,0-0.3,0.1c-0.1,0.1-0.1,0.2-0.1,0.3v4.1c0,0.1,0,0.2,0.1,0.3c0.1,0.1,0.2,0.1,0.3,0.1h0.1h0.2H59h0.1l0,0
			c0.7-0.1,1.4-0.6,1.4-1.3l0,0C60.5,71.1,60.6,70.2,59.8,69.8z M58.6,68.1L58.6,68.1c0.6,0,0.9,0.2,0.9,0.7c0,0.2,0,0.8-0.9,0.8
			h-0.1h-0.9c0,0,0,0,0,0v-1.5L58.6,68.1L58.6,68.1z M59,71.8L59,71.8h-1.5v-1.5c0,0,0,0,0,0h1.1h0H59h0.1c0.5,0,0.8,0.4,0.8,0.8
			C59.9,71.2,59.7,71.8,59,71.8z"/>
		<path class="st0" d="M65.1,67.8c0-0.1-0.1-0.2-0.2-0.3c-0.1-0.1-0.2-0.1-0.3-0.1c-0.1,0-0.2,0.1-0.3,0.2l-1.3,1.6l-1.3-1.6
			c-0.1-0.1-0.2-0.2-0.3-0.2c-0.1,0-0.2,0-0.3,0.1c-0.1,0.1-0.2,0.2-0.2,0.3c0,0.1,0,0.2,0.1,0.3l1.5,2v2c0,0.1,0,0.2,0.1,0.3
			c0.1,0.1,0.2,0.1,0.3,0.1c0.1,0,0.2,0,0.3-0.1c0.1-0.1,0.1-0.2,0.1-0.3v-2l1.5-2C65.1,68,65.1,67.9,65.1,67.8z"/>
		<path id="FULL_MILLENNIUM_SI_2_" class="st0" d="M90.8,71.8v-1.5h2.1c0.1,0,0.2,0,0.3-0.1c0.1-0.1,0.1-0.1,0.1-0.2
			c0-0.1,0-0.2-0.1-0.2c-0.1-0.1-0.2-0.1-0.3-0.1h-2.1v-1.5h2.9c0.1,0,0.2,0,0.3-0.1c0.1-0.1,0.1-0.1,0.1-0.2c0-0.1,0-0.2-0.1-0.2
			c-0.1-0.1-0.2-0.1-0.3-0.1h-3.3c-0.1,0-0.1,0-0.2,0s-0.1,0-0.1,0.1c0,0-0.1,0.1-0.1,0.1s0,0.1,0,0.1v4.4c0,0.1,0,0.1,0,0.1
			c0,0,0.1,0.1,0.1,0.1c0,0,0.1,0.1,0.1,0.1c0.1,0,0.1,0,0.2,0h3.3c0.1,0,0.2,0,0.3-0.1c0.1-0.1,0.1-0.1,0.1-0.2
			c0-0.1,0-0.2-0.1-0.2c-0.1-0.1-0.2-0.1-0.3-0.1L90.8,71.8L90.8,71.8z M69.7,72.1c0,0.1,0,0.2,0.1,0.2c0.1,0.1,0.2,0.1,0.3,0.1
			s0.2,0,0.3-0.1c0.1-0.1,0.1-0.1,0.1-0.2v-2.9l1.8,3.1c0.1,0.1,0.2,0.2,0.4,0.2c0.1,0,0.3-0.1,0.3-0.2l1.8-3.1v2.9
			c0,0.1,0,0.2,0.1,0.2c0.1,0.1,0.2,0.1,0.3,0.1c0.1,0,0.2,0,0.3-0.1c0.1-0.1,0.1-0.1,0.1-0.2v-4.4c0-0.1,0-0.1,0-0.1
			c0,0-0.1-0.1-0.1-0.1c0,0-0.1-0.1-0.1-0.1c-0.1,0-0.1,0-0.2,0c-0.1,0-0.2,0.1-0.3,0.2l-2.2,3.8l-2.2-3.8c-0.1-0.1-0.2-0.2-0.3-0.2
			c-0.1,0-0.1,0-0.2,0c-0.1,0-0.1,0-0.1,0.1c0,0-0.1,0.1-0.1,0.1s0,0.1,0,0.1L69.7,72.1 M119.3,72.1c0,0.1,0,0.2,0.1,0.2
			c0.1,0.1,0.2,0.1,0.3,0.1s0.2,0,0.3-0.1c0.1-0.1,0.1-0.1,0.1-0.2v-2.9l1.8,3.1c0.1,0.1,0.2,0.2,0.4,0.2c0.1,0,0.3-0.1,0.3-0.2
			l1.8-3.1v2.9c0,0.1,0,0.2,0.1,0.2c0.1,0.1,0.2,0.1,0.3,0.1c0.1,0,0.2,0,0.3-0.1c0.1-0.1,0.1-0.1,0.1-0.2v-4.4c0-0.1,0-0.1,0-0.1
			c0,0-0.1-0.1-0.1-0.1c0,0-0.1-0.1-0.1-0.1c-0.1,0-0.1,0-0.2,0c-0.1,0-0.2,0.1-0.3,0.2l-2.2,3.8l-2.2-3.8c-0.1-0.1-0.2-0.2-0.3-0.2
			c-0.1,0-0.1,0-0.2,0c-0.1,0-0.1,0-0.1,0.1c0,0-0.1,0.1-0.1,0.1c0,0.1,0,0.1,0,0.1L119.3,72.1 M78.3,67.8c0-0.1,0-0.2-0.1-0.2
			c-0.1-0.1-0.2-0.1-0.3-0.1s-0.2,0-0.3,0.1c-0.1,0.1-0.1,0.1-0.1,0.2v4.4c0,0.1,0,0.2,0.1,0.2c0.1,0.1,0.2,0.1,0.3,0.1
			s0.2,0,0.3-0.1c0.1-0.1,0.1-0.1,0.1-0.2V67.8z M110.5,67.8c0-0.1,0-0.2-0.1-0.2c-0.1-0.1-0.2-0.1-0.3-0.1s-0.2,0-0.3,0.1
			c-0.1,0.1-0.1,0.1-0.1,0.2v4.4c0,0.1,0,0.2,0.1,0.2c0.1,0.1,0.2,0.1,0.3,0.1s0.2,0,0.3-0.1c0.1-0.1,0.1-0.1,0.1-0.2V67.8z
			 M96.3,72.1c0,0.1,0,0.2,0.1,0.2c0.1,0.1,0.2,0.1,0.3,0.1c0.1,0,0.2,0,0.3-0.1c0.1-0.1,0.1-0.1,0.1-0.2v-3.4l3.2,3.6
			c0.1,0.1,0.2,0.1,0.3,0.1c0.1,0,0.1,0,0.2,0c0.1,0,0.1-0.1,0.1-0.1c0,0,0.1-0.1,0.1-0.1c0,0,0-0.1,0-0.1v-4.3c0-0.1,0-0.2-0.1-0.2
			c-0.1-0.1-0.2-0.1-0.3-0.1s-0.2,0-0.3,0.1c-0.1,0.1-0.1,0.1-0.1,0.2v3.4L97,67.6c-0.1-0.1-0.2-0.1-0.3-0.1c-0.1,0-0.1,0-0.2,0
			c-0.1,0-0.1,0-0.1,0.1c0,0-0.1,0.1-0.1,0.1c0,0.1,0,0.1,0,0.1L96.3,72.1 M103,72.1c0,0.1,0,0.2,0.1,0.2c0.1,0.1,0.2,0.1,0.3,0.1
			c0.1,0,0.2,0,0.3-0.1c0.1-0.1,0.1-0.1,0.1-0.2v-3.4l3.2,3.6c0.1,0.1,0.2,0.1,0.3,0.1c0.1,0,0.1,0,0.2,0c0.1,0,0.1-0.1,0.1-0.1
			c0,0,0.1-0.1,0.1-0.1c0,0,0-0.1,0-0.1v-4.3c0-0.1,0-0.2-0.1-0.2c-0.1-0.1-0.2-0.1-0.3-0.1s-0.2,0-0.3,0.1
			c-0.1,0.1-0.1,0.1-0.1,0.2v3.4l-3.2-3.6c-0.1-0.1-0.2-0.1-0.3-0.1c-0.1,0-0.1,0-0.2,0c-0.1,0-0.1,0-0.1,0.1c0,0-0.1,0.1-0.1,0.1
			s0,0.1,0,0.1L103,72.1 M80.4,72.1c0,0.1,0,0.1,0,0.1c0,0,0.1,0.1,0.1,0.1c0,0,0.1,0.1,0.1,0.1c0.1,0,0.1,0,0.2,0h2.5
			c0.1,0,0.2,0,0.3-0.1c0.1-0.1,0.1-0.1,0.1-0.2c0-0.1,0-0.2-0.1-0.2c-0.1-0.1-0.2-0.1-0.3-0.1h-2.2v-4c0-0.1,0-0.2-0.1-0.2
			c-0.1-0.1-0.2-0.1-0.3-0.1c-0.1,0-0.2,0-0.3,0.1c-0.1,0.1-0.1,0.1-0.1,0.2V72.1z M85.2,72.1c0,0.1,0,0.1,0,0.1
			c0,0,0.1,0.1,0.1,0.1c0,0,0.1,0.1,0.1,0.1c0.1,0,0.1,0,0.2,0h2.5c0.1,0,0.2,0,0.3-0.1c0.1-0.1,0.1-0.1,0.1-0.2
			c0-0.1,0-0.2-0.1-0.2c-0.1-0.1-0.2-0.1-0.3-0.1H86v-4c0-0.1,0-0.2-0.1-0.2c-0.1-0.1-0.2-0.1-0.3-0.1s-0.2,0-0.3,0.1
			c-0.1,0.1-0.1,0.1-0.1,0.2V72.1z M117.1,67.5c-0.1-0.1-0.2-0.1-0.3-0.1s-0.2,0-0.3,0.1c-0.1,0.1-0.1,0.1-0.1,0.2v2.8l0,0l0,0
			c0,0.6-0.3,1.2-1.6,1.2l0,0l0,0c-1.3,0-1.6-0.6-1.6-1.2l0,0l0,0v-2.8c0-0.1,0-0.2-0.1-0.2c-0.1-0.1-0.2-0.1-0.3-0.1
			c-0.1,0-0.2,0-0.3,0.1c-0.1,0.1-0.1,0.1-0.1,0.2v2.8l0,0c0,0.6,0.3,1.9,2.3,1.9l0,0l0,0c2.1,0,2.3-1.2,2.3-1.9l0,0v-2.8
			C117.2,67.7,117.2,67.6,117.1,67.5z"/>
	</g>
</g>
</svg>
